<svg width="1024" height="1024" viewBox="0 0 1024 1024" fill="none" xmlns="http://www.w3.org/2000/svg">
<path d="M535.124 468.376C535.124 480.803 545.197 490.876 557.624 490.876L760.124 490.876C772.55 490.876 782.624 480.803 782.624 468.376C782.624 455.95 772.55 445.876 760.124 445.876H580.124V265.876C580.124 253.45 570.05 243.376 557.624 243.376C545.197 243.376 535.124 253.45 535.124 265.876L535.124 468.376ZM789 237L773.09 221.09L541.714 452.467L557.624 468.376L573.533 484.286L804.91 252.91L789 237Z" fill="black"/>
<path d="M488.062 557.179C488.062 544.753 477.988 534.679 465.562 534.679L263.062 534.679C250.635 534.679 240.562 544.753 240.562 557.179C240.562 569.606 250.635 579.679 263.062 579.679H443.062V759.679C443.062 772.106 453.135 782.179 465.562 782.179C477.988 782.179 488.062 772.106 488.062 759.679L488.062 557.179ZM235 787.741L250.91 803.651L481.472 573.089L465.562 557.179L449.652 541.27L219.09 771.831L235 787.741Z" fill="black"/>
</svg>
